<svg xmlns="http://www.w3.org/2000/svg" width="100"  viewBox="0 0 780 942" stroke-linejoin="round"><path d="M310 0.5c-60.8 24.1-118 59.8-162.1 103.7 -26.3 27.4-49.3 57.1-70.6 86.6 -23.1 37.3-40.7 76.3-54.4 116.4 -12.2 40.8-19.3 83.3-22.1 127.4 -1.7 46.5 4.3 90 14 132 9.3 40.2 24.2 79.5 43.6 118 17.5 31.8 38.5 62.3 63.4 91.3 28.7 30.5 58.6 57.5 90.1 79.1 30.7 21.4 63.2 38.1 97.1 51.2 35.9 14.9 72.2 24.9 108.7 29.7 36.6 5.6 73.3 7.2 109.9 4.1 37.2-3.7 73.7-10.8 109.3-22.7 50.6-16.8 98.1-40.3 141.6-72.1 -47.7 18.1-96.8 30-148 32.4 -61.6 4.6-121.6-2.2-178.8-22.3 -47.4-13.1-90.4-32.1-126.4-61.1 -30.2-21.3-58.2-46.3-84.1-74.2 -30.9-35.1-58-73.9-79.8-118.2 -20-41.3-33.5-83.7-41.3-127 -8-55.6-9.3-110-0.3-162.3 7-39.8 17.9-79 34.2-117.2 19.6-42.4 42.1-82.7 74.7-117.4 21.7-29.4 53-55.7 81.2-77.4Z" style="stroke-width:1px;stroke:#000"/></svg>
